# xmcd
#
# Track frame offsets:
#	150
#	24710
#	39815
#	53217
#	70165
#	83280
#	96707
#	113792
#	127290
#	146127
#	157007
#	166652
#	186372
#	203482
#	216660
#	235680
#	249897
#	263480
#	276505
#	285775
#	299525
#	316095
#
# Disc length: 4441 seconds
#
# Revision: 4
# Processed by: cddbd v1.5.2PL0 Copyright (c) Steve Scherf et al.
# Submitted via: EZCDAudioConverter 4.0.2.1
#
DISCID=41115716
DTITLE=Sambler - Red River Valley - Disc 3
DYEAR=1999
DGENRE=Country
TTITLE0=John Brack - The Streets  Of Laredo
TTITLE1=Roger Miller - Me And Bobby McGee
TTITLE2=Merle Haggard - The Way I AM
TTITLE3=Rebecca Holden -  Old Paint
TTITLE4=Billy Troy - Bury Me Not On The Lone Prairie
TTITLE5=The Kendalls - The Pittsburgh Stealers 
TTITLE6=Pam Gadd - Sweet Betsy Pike
TTITLE7=Johnny Paycheck - Slide Off Your Satin Sheets
TTITLE8=John Brack - Slide Off Your Satin Sheets
TTITLE9=Jesse James - Jesse James
TTITLE10=Merle Haggard - The Legend Of Bonnie and Clyde
TTITLE11=Kenny Rogers - She Believes In Me
TTITLE12=Pam Gadd -  Frankie And Johnny
TTITLE13=Merle Haggard -  Kentucky Gambler
TTITLE14=John Brack - The Banks Of Ohio  
TTITLE15=Billy Troy -  Birmingham Jail
TTITLE16=David Houston - Almost Persuaded
TTITLE17=Johnny Lee - Bet Your Heart On Me
TTITLE18=Bobby Sykes and Lou Darnell - In The Jailhouse Now 
TTITLE19=Eddy Raven - Right Hand Man 
TTITLE20=Merle Haggard -  Daddy Frank
TTITLE21=Rebecca Holden -  Cowboys Dream 
EXTD=
EXTT0=
EXTT1=
EXTT2=
EXTT3=
EXTT4=
EXTT5=
EXTT6=
EXTT7=
EXTT8=
EXTT9=
EXTT10=
EXTT11=
EXTT12=
EXTT13=
EXTT14=
EXTT15=
EXTT16=
EXTT17=
EXTT18=
EXTT19=
EXTT20=
EXTT21=
PLAYORDER=
